<svg xmlns="http://www.w3.org/2000/svg" viewBox="0 0 512 512"><title>onboarding-02-expense-tracking.svg</title><circle cx="190" cy="190" r="30" fill="#FFD7B5"/><path d="M158 185Q190 140 225 182L215 160Q190 138 165 160Z" fill="#0F172A"/><path d="M132 275Q190 228 248 275V315H132Z" fill="#059669"/><rect x="155" y="275" width="145" height="95" rx="16" fill="#0F172A"/><rect x="175" y="295" width="105" height="55" rx="8" fill="#F8FAFC"/><rect x="315" y="185" width="32" height="140" rx="7" fill="#ECFDF5"/><rect x="360" y="145" width="32" height="180" rx="7" fill="#059669"/><rect x="405" y="105" width="32" height="220" rx="7" fill="#0F172A"/><circle cx="380" cy="350" r="42" fill="#F8FAFC" stroke="#059669" stroke-width="14"/><path d="M120 350V380.0" stroke="#059669" stroke-width="5.3999999999999995" stroke-linecap="round" fill="none"/><ellipse cx="109.2" cy="359.0" rx="14.399999999999999" ry="7.8" transform="rotate(-35 109.2 359.0)" fill="#059669"/><ellipse cx="130.8" cy="350" rx="14.399999999999999" ry="7.8" transform="rotate(35 130.8 350)" fill="#059669"/></svg>